<svg xmlns="http://www.w3.org/2000/svg" viewBox="0 0 512 512">
  <defs>
    <linearGradient id="skyGradient" x1="0%" y1="0%" x2="0%" y2="100%">
      <stop offset="0%" style="stop-color:#3b82f6;stop-opacity:1" />
      <stop offset="100%" style="stop-color:#1d4ed8;stop-opacity:1" />
    </linearGradient>
    <linearGradient id="sunGradient" x1="0%" y1="0%" x2="100%" y2="100%">
      <stop offset="0%" style="stop-color:#fbbf24;stop-opacity:1" />
      <stop offset="100%" style="stop-color:#f59e0b;stop-opacity:1" />
    </linearGradient>
  </defs>
  
  <!-- Background -->
  <rect width="512" height="512" rx="100" fill="url(#skyGradient)"/>
  
  <!-- Sun -->
  <circle cx="320" cy="150" r="70" fill="url(#sunGradient)"/>
  
  <!-- Sun rays -->
  <g fill="#fbbf24" opacity="0.8">
    <rect x="315" y="50" width="10" height="30" rx="5"/>
    <rect x="315" y="220" width="10" height="30" rx="5"/>
    <rect x="220" y="145" width="30" height="10" rx="5"/>
    <rect x="390" y="145" width="30" height="10" rx="5"/>
    <rect x="245" y="80" width="10" height="25" rx="5" transform="rotate(45 250 92)"/>
    <rect x="385" y="80" width="10" height="25" rx="5" transform="rotate(-45 390 92)"/>
    <rect x="245" y="195" width="10" height="25" rx="5" transform="rotate(-45 250 207)"/>
    <rect x="385" y="195" width="10" height="25" rx="5" transform="rotate(45 390 207)"/>
  </g>
  
  <!-- Cloud -->
  <g fill="white">
    <ellipse cx="200" cy="280" rx="80" ry="60"/>
    <ellipse cx="280" cy="300" rx="70" ry="50"/>
    <ellipse cx="150" cy="310" rx="60" ry="45"/>
    <ellipse cx="230" cy="320" rx="90" ry="55"/>
    <ellipse cx="320" cy="330" rx="50" ry="40"/>
  </g>
  
  <!-- Rain drops -->
  <g fill="#60a5fa" opacity="0.9">
    <ellipse cx="160" cy="400" rx="8" ry="20"/>
    <ellipse cx="200" cy="420" rx="8" ry="20"/>
    <ellipse cx="240" cy="390" rx="8" ry="20"/>
    <ellipse cx="280" cy="430" rx="8" ry="20"/>
    <ellipse cx="320" cy="400" rx="8" ry="20"/>
  </g>
</svg>
